<svg xmlns="http://www.w3.org/2000/svg" version="1.1" viewBox="-5.0 -10.0 110.0 135.0">
 <path d="m84.902 29.195c3.7539 0 6.7969 3.0391 6.7969 6.793 0 3.7539-3.043 6.793-6.7969 6.793-3.3164 0.003906-6.543 1.0625-9.2148 3.0273-2.6719 1.9609-4.6445 4.7305-5.6367 7.8945-0.3125 1.0039-0.12891 2.0977 0.49609 2.9453 0.62109 0.84766 1.6133 1.3477 2.6641 1.3477h23.379c1.0508 0 2.043-0.5 2.6641-1.3477 0.625-0.84766 0.80469-1.9414 0.49219-2.9453-0.98828-3.1641-2.9609-5.9297-5.6289-7.8945-2.6719-1.9648-5.8984-3.0234-9.2148-3.0273-3.75 0-6.793-3.0391-6.793-6.793 0-3.7539 3.043-6.793 6.793-6.793zm-36.375 50.945c0.48047-0.46094 1.2422-0.44141 1.7031 0.039063 0.45703 0.48437 0.4375 1.2461-0.042969 1.7031l-1.5469 1.4648 23.652 0.003906c3.8047-0.011718 6.8867-3.0898 6.8984-6.8945v-12.578c0-0.66406 0.54297-1.207 1.207-1.207 0.66797 0 1.207 0.54297 1.207 1.207v12.578c-0.015625 5.1367-4.1758 9.2969-9.3125 9.3125h-23.871l1.6133 1.7031c0.45703 0.48438 0.4375 1.2461-0.042968 1.7031-0.48438 0.46094-1.2461 0.44141-1.7031-0.042969l-3.4844-3.6836c-0.26172-0.23438-0.40234-0.57031-0.39453-0.92188 0.007813-0.34766 0.16797-0.67578 0.4375-0.89844zm12.902-50.906c-0.23047-0.22266-0.36328-0.52344-0.375-0.84375-0.007813-0.32031 0.11328-0.62891 0.33203-0.85938 0.46094-0.48047 1.2227-0.5 1.7031-0.042969l3.7383 3.5469c0.097656 0.097656 0.17969 0.21094 0.24609 0.33203v0.011718c0.082031 0.16797 0.125 0.35156 0.125 0.53516 0 0.35938-0.15625 0.69922-0.43359 0.92578l-3.4492 3.6406c-0.46094 0.48047-1.2227 0.5-1.7031 0.042969-0.48438-0.46094-0.50391-1.2227-0.042969-1.7031l1.6094-1.6953h-27.32c-3.8047 0.015625-6.8828 3.0938-6.8984 6.8984v12.203c-0.019532 0.65234-0.55469 1.1719-1.207 1.1719s-1.1875-0.51953-1.207-1.1719v-12.203c0.011719-5.1406 4.1719-9.3008 9.3125-9.3125h27.121zm13.125-18.738h20.695v12.68h-20.695zm4.918 9.6797c-0.66797 0-1.2109-0.54297-1.2109-1.2109 0-0.66797 0.54297-1.2109 1.2109-1.2109h10.855c0.66797 0 1.2109 0.54297 1.2109 1.2109 0 0.66797-0.54297 1.2109-1.2109 1.2109zm0-4.2539v-0.003906c-0.32422 0.011719-0.64062-0.11328-0.875-0.33984s-0.36719-0.53906-0.36719-0.86719c0-0.32422 0.13281-0.63672 0.36719-0.86328 0.23438-0.23047 0.55078-0.35156 0.875-0.34375h10.855c0.32812-0.007812 0.64453 0.11328 0.87891 0.34375 0.23047 0.22656 0.36328 0.53906 0.36328 0.86328 0 0.32812-0.13281 0.64062-0.36328 0.86719-0.23438 0.22656-0.55078 0.35156-0.87891 0.33984zm-79.383 23.625h20.695v12.68h-20.695zm4.9219 9.668v0.003906c-0.66797 0-1.207-0.53906-1.207-1.207s0.53906-1.207 1.207-1.207h10.852c0.66406 0 1.207 0.53906 1.207 1.207s-0.54297 1.207-1.207 1.207zm0-4.25v0.003906c-0.66797 0-1.2109-0.54297-1.2109-1.2109 0-0.66797 0.54297-1.2109 1.2109-1.2109h10.852c0.66797 0 1.2109 0.54297 1.2109 1.2109 0 0.66797-0.54297 1.2109-1.2109 1.2109zm38 25.227v0.003906c-0.66797 0-1.207-0.53906-1.207-1.207s0.53906-1.207 1.207-1.207h14.316c0.66406 0 1.207 0.53906 1.207 1.207s-0.54297 1.207-1.207 1.207h-2.9766v1.1055h-8.375v-1.1055zm7.1562-30.422v0.003907c6.2227 0 11.641 4.2461 13.129 10.285 1.4883 6.043-1.3359 12.32-6.8477 15.211-0.058594 0.027344-0.11328 0.0625-0.17188 0.097657h-4.9023v-8.4531h1.1758c1.1797 0 2.2852-0.57812 2.957-1.5508 0.67188-0.97266 0.82031-2.2148 0.40234-3.3164-0.42188-1.1055-1.3555-1.9336-2.5039-2.2148-1.1445-0.28125-2.3594 0.023438-3.2422 0.80859-0.88281-0.78516-2.0938-1.082-3.2383-0.80078s-2.0781 1.1055-2.4961 2.2109c-0.42188 1.1016-0.26953 2.3398 0.39844 3.3125 0.66797 0.96875 1.7734 1.5508 2.9531 1.5508h1.1758v8.4531h-4.9023c-0.058594-0.035157-0.11328-0.070313-0.17188-0.097657v0.003907c-5.5078-2.8906-8.3359-9.168-6.8477-15.211 1.4883-6.0391 6.9102-10.285 13.129-10.285zm1.2109 13.543v1.1758h1.1758v0.003907c0.64844 0 1.1719-0.52734 1.1758-1.1758 0-0.47656-0.28906-0.90625-0.72656-1.0859-0.44141-0.17969-0.94531-0.078125-1.2812 0.25781-0.21875 0.22266-0.34375 0.51953-0.34375 0.82812zm-3.5938 1.1758h1.1758v-1.168c-0.003907-0.64844-0.52734-1.1758-1.1758-1.1758-0.47656 0-0.90625 0.28906-1.0859 0.72656-0.18359 0.44141-0.078125 0.94531 0.25781 1.2812 0.21875 0.21875 0.51953 0.34375 0.82812 0.34375zm6.3945 19.227v0.003906c-0.53516 1.7656-2.1641 2.9766-4.0117 2.9766-1.8438 0-3.4766-1.2109-4.0078-2.9766zm-16.074 9.2695c-1.3281-4.2461-4.4102-7.7227-8.4688-9.5469-4.0586-1.8281-8.7031-1.8281-12.762 0-4.0586 1.8242-7.1445 5.3008-8.4688 9.5469-0.3125 1.0039-0.12891 2.0977 0.49219 2.9453 0.625 0.84766 1.6133 1.3516 2.6641 1.3516h23.375c1.0547 0 2.043-0.50391 2.6641-1.3516 0.625-0.84766 0.80859-1.9414 0.49609-2.9453zm-14.855-24.508c2.7461 0 5.2266 1.6562 6.2773 4.1953 1.0508 2.5391 0.47266 5.4609-1.4727 7.4023-1.9414 1.9453-4.8633 2.5273-7.4023 1.4766-2.5391-1.0547-4.1953-3.5312-4.1953-6.2773 0.003907-3.7539 3.043-6.793 6.793-6.7969z" fill-rule="evenodd"/>
</svg>