<svg xmlns="http://www.w3.org/2000/svg" version="1.1" viewBox="-5.0 -10.0 110.0 135.0">
 <path d="m17.5 10h-4.9766c-3.3242 0-6.5 1.3242-8.8516 3.6758-2.3516 2.3516-3.6758 5.5234-3.6758 8.8516v52.449c0 3.3242 1.3242 6.5 3.6758 8.8516s5.5234 3.6758 8.8516 3.6758h23.773l-3 7.5h-3.3008c-1.375 0-2.5 1.125-2.5 2.5s1.125 2.5 2.5 2.5h40c1.375 0 2.5-1.125 2.5-2.5s-1.125-2.5-2.5-2.5h-3.3008l-3-7.5h23.773c3.3242 0 6.5-1.3242 8.8516-3.6758 2.3516-2.3516 3.6758-5.5234 3.6758-8.8516l0.003906-52.453c0-3.3242-1.3242-6.5-3.6758-8.8516-2.3516-2.3516-5.5234-3.6758-8.8516-3.6758h-4.9766c-0.023438-2.6484-1.0742-5.1758-2.9492-7.0508-1.8984-1.8984-4.4492-2.9492-7.125-2.9492l-44.82 0.0039062c-2.6758 0-5.25 1.0742-7.125 2.9492s-2.9258 4.3984-2.9492 7.0508zm24.199 77.5-3 7.5h22.602l-3-7.5zm40.801-72.5v2.5h2.5508c1.9766 0 3.875 0.77344 5.2734 2.1758 1.3984 1.3984 2.1758 3.3008 2.1758 5.2734v47.551c0 1.375-1.125 2.5-2.5 2.5h-80c-1.375 0-2.5-1.125-2.5-2.5v-47.551c0-4.125 3.3516-7.4492 7.4492-7.4492h2.5508v-2.5h-4.9766c-2 0-3.8984 0.80078-5.3242 2.1992-1.4258 1.3984-2.1992 3.3242-2.1992 5.3242v52.449c0 2 0.80078 3.8984 2.1992 5.3242 1.3984 1.4258 3.3242 2.1992 5.3242 2.1992h74.949c2 0 3.8984-0.80078 5.3242-2.1992s2.1992-3.3242 2.1992-5.3242l0.003906-52.449c0-2-0.80078-3.8984-2.1992-5.3242-1.3984-1.4258-3.3242-2.1992-5.3242-2.1992zm0 7.5v47.5h5v-45.051c0-0.64844-0.25-1.2734-0.72656-1.7266-0.47656-0.44922-1.0742-0.72656-1.7266-0.72656h-2.5508zm-65 0h-2.5508c-1.3516 0-2.4492 1.1016-2.4492 2.4492v45.051h5zm60-5v52.5h-55v-52.5zm-12.5 47.5h7.5c1.375 0 2.5-1.125 2.5-2.5s-1.125-2.5-2.5-2.5h-7.5c-1.375 0-2.5 1.125-2.5 2.5s1.125 2.5 2.5 2.5zm-37.5-15v10c-1.375 0-2.5 1.125-2.5 2.5s1.125 2.5 2.5 2.5h27.5c1.375 0 2.5-1.125 2.5-2.5s-1.125-2.5-2.5-2.5v-5c0-1.375-1.125-2.5-2.5-2.5h-7.5c-1.375 0-2.5 1.125-2.5 2.5v5h-2.5v-10c0-1.375-1.125-2.5-2.5-2.5h-7.5c-1.375 0-2.5 1.125-2.5 2.5zm7.5 10h-2.5v-7.5h2.5zm15-2.5v2.5h-2.5v-2.5zm12.5 0h10c1.375 0 2.5-1.125 2.5-2.5s-1.125-2.5-2.5-2.5h-10c-1.375 0-2.5 1.125-2.5 2.5s1.125 2.5 2.5 2.5zm-12.5-37.5c-8.2734 0-15 6.7266-15 15s6.7266 15 15 15 15-6.7266 15-15-6.7266-15-15-15zm-2.7266 20.625-3 2.5742c1.625 1.125 3.6016 1.8008 5.7266 1.8008s4.1016-0.67578 5.7266-1.8008l-3-2.5742c-0.82422 0.39844-1.75 0.625-2.7266 0.625s-1.8984-0.22656-2.7266-0.625zm5.2266-15.301v3.9492c2.1992 0.97656 3.75 3.1758 3.75 5.7266 0 0.625-0.10156 1.25-0.27344 1.8242l3 2.5742c0.64844-1.3242 1.0234-2.8242 1.0234-4.3984 0-4.6484-3.1992-8.5742-7.5-9.6758zm-5 0c-4.3008 1.1016-7.5 5.0234-7.5 9.6758 0 1.5742 0.375 3.0742 1.0234 4.3984l3-2.5742c-0.17578-0.57422-0.27344-1.1992-0.27344-1.8242 0-2.5508 1.5508-4.7734 3.75-5.7266zm2.5 8.4258c0.69922 0 1.25 0.55078 1.25 1.25s-0.55078 1.25-1.25 1.25-1.25-0.55078-1.25-1.25 0.55078-1.25 1.25-1.25zm27.5-21.25h-55v-2.3984c0-1.3516 0.52344-2.6484 1.5-3.6016 0.94922-0.94922 2.25-1.5 3.6016-1.5h44.824c1.3516 0 2.6484 0.52344 3.6016 1.5 0.94922 0.94922 1.5 2.25 1.5 3.6016v2.3984z" fill-rule="evenodd"/>
</svg>