<svg xmlns="http://www.w3.org/2000/svg" version="1.1" viewBox="-5.0 -10.0 110.0 135.0">
 <path d="m7.9844 27.258h8.4141v5.2266h-6.1797v36.453h42.785c0.023438 0.10938 0.066406 0.19922 0.10938 0.30859 0.28906 0.6875 0.77344 1.2617 1.375 1.6836 0.75391 0.53125 1.3945 1.1523 1.6602 2.0352 0.44141 1.3281 0.22266 3.7891 0.26562 5.2266v0.15234l0.023438 0.13281c0.042969 0.33203 0.10938 0.6875 0.17578 0.99609l-48.629 0.003906c-1.6406 0-2.9883-1.3281-2.9883-2.9883v-46.242c0-1.6406 1.3516-2.9883 2.9883-2.9883zm64.289 63.688h17.98c-0.95312-6.4648-1.9492-13.508 0.99609-19.688 4.6953-9.8984 8.0156-26.551-9.4375-30.938-11.938-3.0117-23.43 4.5195-23.43 17.273 0 1.9258 0.046876 2.4141-0.82031 4.3164-0.82031 1.8164-3.9219 5.668-1.7695 7.1758 3.4531 2.457 2.7891 5.0508 2.8555 9.0586 0.37891 2.5469 1.75 4.8711 4.4961 5.0039 5.2969 0.26953 8.3984 1.7734 9.1289 7.7969zm7.9727-31.203v1.9922h-1.9727v-4.0938h0.17578c0.62109 0 1.1289-0.48828 1.1289-1.1289 0-0.61719-0.50781-1.1055-1.1289-1.1055h-2.5898c-0.62109 0-1.1328 0.48828-1.1328 1.1055 0 0.64062 0.51172 1.1289 1.1328 1.1289h0.17578v4.0977h-1.9727v-1.9922c-1.7031-1.0391-2.8555-2.9219-2.8555-5.0703 0-3.2773 2.6562-5.9375 5.9336-5.9375 3.3008 0 5.957 2.6562 5.957 5.9375 0.003906 2.1445-1.1484 4.0273-2.8516 5.0664zm-5.9336 6.1797c-0.62109 0-1.1055-0.50781-1.1055-1.1289 0-0.62109 0.48828-1.1289 1.1055-1.1289h5.6914c0.62109 0 1.1055 0.51172 1.1055 1.1289 0 0.62109-0.48828 1.1289-1.1055 1.1289zm1.7031 3.0547c-0.62109 0-1.1328-0.50781-1.1328-1.1289 0-0.61719 0.51172-1.1289 1.1328-1.1289h2.2812c0.61719 0 1.1289 0.50781 1.1289 1.1289s-0.51172 1.1289-1.1289 1.1289zm7.332-6.2422c-0.44531-0.44531-0.44531-1.1523 0-1.5938 0.44141-0.44141 1.1484-0.44141 1.5938 0l1.2812 1.2852c0.44141 0.44141 0.44141 1.1523 0 1.5938-0.42188 0.44141-1.1523 0.44141-1.5703 0zm3.6953-6.668c-0.62109 0-1.1289-0.50781-1.1289-1.1289 0-0.61719 0.51172-1.1289 1.1289-1.1289h1.8398c0.61719 0 1.1055 0.51172 1.1055 1.1289 0 0.62109-0.48828 1.1289-1.1055 1.1289zm-2.1016-7.3281c-0.44531 0.44141-1.1523 0.44141-1.5938 0-0.44531-0.44141-0.44531-1.1523 0-1.5938l1.3047-1.2852c0.42188-0.44141 1.1523-0.44141 1.5703 0 0.44141 0.44141 0.44141 1.1523 0 1.5938zm-6.668-3.6758c0 0.62109-0.48438 1.1094-1.1289 1.1094-0.62109 0-1.1055-0.48828-1.1055-1.1094v-1.8398c0-0.61719 0.48438-1.1289 1.1055-1.1289 0.64453 0 1.1289 0.51172 1.1289 1.1289zm-7.3047 2.082c0.42188 0.44141 0.42188 1.1523 0 1.5938-0.44141 0.44141-1.1523 0.44141-1.5938 0l-1.3086-1.2852c-0.41797-0.44141-0.41797-1.1523 0-1.5938 0.44531-0.44141 1.1523-0.44141 1.5938 0zm-5.5391 8.9219c-0.61719 0-1.1055-0.50781-1.1055-1.1289 0-0.61719 0.48438-1.1289 1.1055-1.1289h1.8398c0.62109 0 1.1289 0.51172 1.1289 1.1289 0 0.62109-0.50781 1.1289-1.1289 1.1289zm3.9414 5.0742c0.44141-0.44141 1.1484-0.44141 1.5938 0 0.42188 0.44531 0.42188 1.1523 0 1.5938l-1.3086 1.2852c-0.44141 0.44141-1.1484 0.44141-1.5938 0-0.41797-0.44141-0.41797-1.1523 0-1.5938zm13.977-22.723v-5.9375h-6.1992v-5.2266h8.4375c1.6406 0 2.9922 1.3516 2.9922 2.9922v10.32c-1.5352-0.86328-3.2617-1.5938-5.2305-2.1484zm-46.973-5.0508c-0.48828 0.37891-1.1953 0.28906-1.5703-0.19922-0.39844-0.48828-0.3125-1.1953 0.17578-1.5742l8.9258-6.9766c0.33203-0.26563 0.77344-0.3125 1.1289-0.15625l3.3008 1.4844 6.4883-5.7109-0.6875-0.046875c-0.61719-0.042969-1.0859-0.59766-1.0391-1.2188 0.042969-0.59766 0.57422-1.0625 1.1953-1.0195l3.3672 0.24219c0.62109 0.042969 1.0859 0.59766 1.0391 1.2188l-0.26562 3.3438c-0.046875 0.62109-0.57422 1.0859-1.1953 1.0391-0.62109-0.042969-1.0859-0.59766-1.0391-1.1953l0.046875-0.61719-6.9336 6.0898c-0.33203 0.28906-0.79688 0.39844-1.2188 0.19922l-3.3438-1.4844zm-0.19922 5.5586h3.875v11.605h-3.875zm10.43-5.1602h3.8789v16.766h-3.8789zm10.434-7.4375h3.875v17.98c-1.6172 1.8594-2.8125 3.9648-3.6094 6.2227h-0.26563zm-27.66-1.1758c0-0.62109 0.48828-1.1289 1.1055-1.1289 0.62109 0 1.1289 0.51172 1.1289 1.1289v27.926h24.98c-0.15234 0.73047-0.26562 1.4844-0.33203 2.2578h-25.777c-0.62109 0-1.1055-0.51172-1.1055-1.1289zm43.27 12.602v-23.984h-51.754v43.98h35.234c0.019532 1.0859 0.019532 1.5273-0.19922 2.2383h-37.273v-51.445c0-1.9492 1.5977-3.543 3.5469-3.543h49.164c1.9453 0 3.5391 1.5938 3.5391 3.543v28.945c-0.75 0.042969-1.5039 0.13281-2.2578 0.26562zm-34.125-27.238c-0.62109 0-1.1328-0.51172-1.1328-1.1289 0-0.61719 0.51172-1.1289 1.1328-1.1289h0.042968c0.64062 0 1.1289 0.50781 1.1289 1.1289 0 0.62109-0.48828 1.1289-1.1289 1.1289zm-5.8008 0c-0.62109 0-1.1289-0.51172-1.1289-1.1289 0-0.61719 0.50781-1.1289 1.1289-1.1289h0.046875c0.61719 0 1.1289 0.50781 1.1289 1.1289 0 0.62109-0.51172 1.1289-1.1289 1.1289zm-5.8047 0c-0.61719 0-1.1289-0.51172-1.1289-1.1289 0-0.61719 0.51172-1.1289 1.1289-1.1289h0.046875c0.62109 0 1.1328 0.50781 1.1328 1.1289 0 0.62109-0.51172 1.1289-1.1328 1.1289zm1.9922 84.484h35.742v-3.9648c0-2.1914-1.793-3.9648-3.9648-3.9648h-5.9102v5.2266h-15.988v-5.2266h-5.9141c-2.1719 0-3.9648 1.7734-3.9648 3.9648zm12.137-4.9609h11.473v-8.3047h-11.473z" fill-rule="evenodd"/>
</svg>